PathFileType	3	(X/Y/Z)	/mnt/e/Research/Bio/Osim_support/Data/PSU100/10hz/Subject7/trcs/Take_2_10hz.trc
DataRate	CameraRate	NumFrames	NumMarkers	Units	OrigDataRate	OrigDataStartFrame	OrigNumFrames
50.0	50.0	6	39	mm	50.0	2954	16876	
Frame#	Time	LFHD			RFHD			LBHD			RBHD			C7			T10			CLAV			STRN			RBAK			LSHO			LUPA			LELB			LFRM			LWRA			LWRB			LFIN			RSHO			RUPA			RELB			RFRM			RWRA			RWRB			RFIN			LASI			RASI			LPSI			RPSI			LTHI			LKNE			LTIB			LANK			LHEE			LTOE			RTHI			RKNE			RTIB			RANK			RHEE			RTOE	
	X1	Y1	Z1	X2	Y2	Z2	X3	Y3	Z3	X4	Y4	Z4	X5	Y5	Z5	X6	Y6	Z6	X7	Y7	Z7	X8	Y8	Z8	X9	Y9	Z9	X10	Y10	Z10	X11	Y11	Z11	X12	Y12	Z12	X13	Y13	Z13	X14	Y14	Z14	X15	Y15	Z15	X16	Y16	Z16	X17	Y17	Z17	X18	Y18	Z18	X19	Y19	Z19	X20	Y20	Z20	X21	Y21	Z21	X22	Y22	Z22	X23	Y23	Z23	X24	Y24	Z24	X25	Y25	Z25	X26	Y26	Z26	X27	Y27	Z27	X28	Y28	Z28	X29	Y29	Z29	X30	Y30	Z30	X31	Y31	Z31	X32	Y32	Z32	X33	Y33	Z33	X34	Y34	Z34	X35	Y35	Z35	X36	Y36	Z36	X37	Y37	Z37	X38	Y38	Z38	X39	Y39	Z39
2955	59.08000	1265.51000	1446.61000	-1321.81000	1312.09000	1441.45000	-1228.97000	1102.83000	1416.99000	-1231.17000	1163.42000	1408.01000	-1147.64000	1113.27000	1275.12000	-1230.96000	1015.70000	946.57300	-1253.34000	1231.52000	1182.14000	-1212.31000	1268.43000	1030.40000	-1201.01000	1015.63000	1153.81000	-1180.16000	1201.53000	1240.48000	-1390.28000	1274.45000	1169.91000	-1507.32000	1356.27000	1146.63000	-1586.45000	1481.36000	1169.35000	-1671.28000	1634.31000	1148.20000	-1678.24000	1589.93000	1166.59000	-1752.42000	1634.31000	1211.22000	-1722.73000	1112.77000	1284.87000	-1150.16000	1160.53000	1363.87000	-1045.79000	1205.41000	1431.68000	-985.38500	1308.37000	1538.29000	-967.95200	1479.19000	1548.55000	-979.50400	1429.59000	1621.02000	-996.58700	1452.45000	1589.28000	-1050.08000	1205.80000	752.23600	-1337.99000	1153.76000	778.85400	-1074.41000	1062.02000	794.73100	-1374.14000	991.64700	806.73000	-1131.19000	1244.72000	623.96700	-1482.85000	1321.34000	470.35200	-1539.62000	1307.71000	268.49400	-1556.81000	1329.12000	65.26780	-1535.68000	1290.88000	11.99690	-1441.84000	1511.18000	22.26500	-1597.87000	1099.88000	603.32100	-963.42100	1041.96000	399.22500	-883.35700	896.70800	234.09500	-871.26700	787.86300	71.16460	-893.88000	739.05700	17.84940	-964.64800	967.93000	14.84690	-829.40800
2956	59.10000	1240.76000	1451.52000	-1279.09000	1283.08000	1446.84000	-1184.16000	1073.44000	1421.99000	-1197.35000	1129.48000	1413.30000	-1110.58000	1083.90000	1279.49000	-1194.54000	987.52100	951.25000	-1221.34000	1202.32000	1187.21000	-1173.35000	1238.76000	1035.51000	-1162.75000	984.84500	1158.61000	-1146.30000	1174.84000	1248.30000	-1350.82000	1248.69000	1179.11000	-1468.47000	1330.74000	1155.96000	-1546.95000	1457.05000	1178.87000	-1630.45000	1610.33000	1156.92000	-1635.99000	1566.31000	1176.43000	-1710.87000	1614.70000	1218.68000	-1682.77000	1082.18000	1289.30000	-1113.06000	1130.10000	1366.42000	-1007.30000	1176.70000	1432.29000	-946.82500	1282.08000	1536.09000	-929.57200	1453.38000	1541.93000	-941.12600	1405.49000	1615.45000	-958.16500	1429.18000	1583.57000	-1011.70000	1182.03000	758.58500	-1303.00000	1123.75000	782.28500	-1041.08000	1037.80000	799.92600	-1341.63000	962.49400	809.70100	-1099.79000	1218.55000	627.81100	-1450.00000	1292.32000	473.35400	-1508.73000	1288.94000	270.64700	-1537.89000	1322.52000	69.63220	-1530.81000	1289.18000	10.15530	-1441.41000	1505.59000	42.48290	-1597.01000	1080.39000	604.17700	-933.27200	1038.38000	395.16800	-859.37200	896.28300	229.79300	-857.45200	787.70600	69.27690	-891.51800	739.61600	17.79460	-964.23700	968.15300	14.29730	-828.93800
2957	59.12000	1217.82000	1456.25000	-1234.54000	1254.33000	1449.99000	-1137.69000	1045.15000	1426.30000	-1164.25000	1095.71000	1417.43000	-1073.71000	1055.67000	1282.95000	-1159.26000	960.35600	955.24100	-1191.01000	1174.24000	1191.12000	-1135.11000	1209.85000	1039.33000	-1124.80000	955.05400	1162.29000	-1113.64000	1150.25000	1255.27000	-1311.85000	1225.93000	1188.24000	-1429.76000	1308.75000	1165.49000	-1507.05000	1436.57000	1189.54000	-1588.16000	1589.75000	1167.17000	-1591.82000	1547.35000	1188.19000	-1666.79000	1597.89000	1228.57000	-1639.39000	1052.36000	1292.54000	-1076.48000	1098.76000	1367.60000	-968.21500	1144.90000	1431.83000	-905.80000	1251.16000	1533.66000	-886.08500	1422.98000	1537.34000	-895.28300	1376.07000	1611.51000	-912.22400	1401.51000	1580.45000	-965.81500	1158.49000	764.02300	-1268.42000	1092.08000	784.26500	-1010.41000	1014.35000	804.55400	-1310.73000	932.60500	812.02300	-1070.10000	1195.06000	630.13600	-1415.92000	1266.31000	474.87600	-1475.64000	1270.71000	273.01000	-1516.59000	1315.66000	76.03940	-1523.93000	1285.41000	6.96532	-1439.87000	1498.68000	69.51180	-1588.90000	1060.57000	603.76300	-906.02600	1035.32000	390.84800	-840.22400	896.27200	225.64300	-846.55600	788.26900	66.79130	-890.45400	740.18400	17.76880	-963.90400	968.40400	13.75410	-828.63000
2958	59.14000	1197.80000	1459.37000	-1189.77000	1222.78000	1450.60000	-1089.59000	1019.04000	1430.53000	-1134.37000	1061.80000	1420.95000	-1040.01000	1029.69000	1285.35000	-1126.30000	935.55400	958.36900	-1163.70000	1148.01000	1193.96000	-1097.67000	1182.90000	1042.27000	-1087.58000	926.80400	1164.75000	-1084.34000	1129.23000	1260.79000	-1274.00000	1207.20000	1196.41000	-1391.93000	1291.14000	1174.23000	-1467.55000	1420.86000	1200.73000	-1545.20000	1574.16000	1179.01000	-1546.04000	1533.61000	1201.67000	-1621.27000	1584.57000	1240.92000	-1592.88000	1023.31000	1294.53000	-1041.65000	1066.09000	1367.39000	-929.71300	1109.60000	1429.85000	-864.33000	1215.44000	1530.49000	-839.66700	1387.59000	1533.04000	-843.51400	1341.58000	1607.66000	-861.05500	1369.11000	1577.49000	-914.31100	1136.96000	767.52200	-1234.56000	1061.10000	785.74000	-979.71400	994.25500	808.20500	-1281.86000	903.52900	814.22000	-1044.00000	1175.10000	630.50600	-1381.98000	1242.71000	474.72800	-1442.86000	1252.82000	274.87500	-1495.57000	1308.14000	82.51990	-1516.70000	1280.76000	2.43844	-1437.72000	1489.91000	98.48770	-1574.00000	1040.61000	603.02000	-882.61300	1031.56000	387.38900	-826.34000	895.88800	221.87500	-838.34500	788.12600	65.19010	-888.31000	739.93400	17.93230	-963.91400	968.48600	13.41650	-828.56200
2959	59.16000	1179.59000	1461.12000	-1145.04000	1192.98000	1451.91000	-1043.09000	995.65200	1433.81000	-1107.83000	1028.55000	1422.95000	-1009.95000	1005.81000	1286.64000	-1096.16000	913.61300	960.57500	-1140.55000	1123.63000	1195.58000	-1062.02000	1157.86000	1044.02000	-1052.26000	900.95900	1165.77000	-1058.85000	1111.22000	1265.29000	-1237.73000	1192.98000	1204.25000	-1354.77000	1278.64000	1183.18000	-1428.16000	1410.47000	1211.90000	-1501.22000	1563.28000	1190.88000	-1497.76000	1525.98000	1214.95000	-1573.73000	1576.04000	1253.90000	-1543.06000	996.16400	1294.75000	-1009.92000	1032.81000	1365.91000	-893.09600	1072.28000	1426.73000	-824.02400	1176.52000	1526.07000	-791.95400	1348.60000	1528.03000	-787.07000	1303.71000	1603.11000	-805.59600	1333.95000	1573.86000	-857.88600	1118.28000	770.32400	-1204.37000	1031.95000	785.89500	-952.94800	977.53000	810.97500	-1257.06000	876.96500	815.37200	-1022.99000	1158.26000	628.62200	-1351.78000	1219.69000	474.63900	-1416.12000	1236.84000	275.63000	-1477.44000	1300.40000	86.76950	-1507.17000	1277.24000	-2.58108	-1435.97000	1479.55000	125.13700	-1555.18000	1021.05000	602.47900	-863.72000	1026.40000	385.96300	-815.49600	894.43800	219.30600	-832.12600	787.90800	63.83420	-886.66800	739.81900	18.02300	-964.10300	968.57700	13.21570	-828.57200
2960	59.18000	1162.42000	1461.36000	-1101.24000	1164.76000	1451.71000	-998.65100	975.67600	1436.44000	-1084.99000	997.18100	1423.99000	-983.47600	983.23900	1285.90000	-1068.63000	894.94600	961.17100	-1122.44000	1100.89000	1195.55000	-1029.18000	1134.87000	1044.42000	-1019.94000	877.19500	1164.63000	-1037.69000	1095.55000	1268.76000	-1203.52000	1182.21000	1211.30000	-1318.80000	1270.45000	1191.85000	-1388.89000	1405.49000	1223.13000	-1454.92000	1558.47000	1203.36000	-1443.51000	1524.21000	1228.79000	-1522.37000	1572.36000	1267.87000	-1488.04000	969.50900	1293.10000	-980.97500	998.86000	1361.81000	-859.35900	1033.00000	1420.69000	-786.06800	1134.95000	1518.82000	-745.08400	1306.26000	1520.57000	-729.47000	1262.51000	1596.16000	-748.72800	1295.94000	1568.23000	-799.64100	1103.74000	771.67800	-1178.10000	1005.24000	784.61200	-931.08900	965.48800	812.30200	-1237.23000	853.97600	814.50000	-1008.61000	1145.18000	625.15600	-1325.93000	1202.83000	471.33000	-1391.58000	1224.41000	276.00000	-1463.47000	1294.52000	89.28040	-1497.76000	1276.14000	-7.69623	-1436.44000	1470.01000	146.08900	-1534.24000	1001.85000	602.30800	-848.41900	1018.96000	386.05300	-805.71600	891.41100	217.57900	-826.46000	787.46500	62.34390	-885.35200	740.11700	17.68750	-963.98400	968.58000	13.18300	-828.60400
